<svg xmlns="http://www.w3.org/2000/svg" viewBox="0 0 100 100" width="100" height="100"><g fill="#1f2a33" stroke="#1f2a33"><circle cx="50" cy="50" r="42" fill="none" stroke-width="1.4"/><line x1="50" y1="6.5" x2="50" y2="2" stroke-width="1.4"/><line x1="57.55" y1="7.16" x2="58.34" y2="2.73" stroke-width="1.4"/><line x1="64.88" y1="9.12" x2="66.42" y2="4.89" stroke-width="1.4"/><line x1="71.75" y1="12.33" x2="74" y2="8.43" stroke-width="1.4"/><line x1="77.96" y1="16.68" x2="80.85" y2="13.23" stroke-width="1.4"/><line x1="83.32" y1="22.04" x2="86.77" y2="19.15" stroke-width="1.4"/><line x1="87.67" y1="28.25" x2="91.57" y2="26" stroke-width="1.4"/><line x1="90.88" y1="35.12" x2="95.11" y2="33.58" stroke-width="1.4"/><line x1="92.84" y1="42.45" x2="97.27" y2="41.66" stroke-width="1.4"/><line x1="93.5" y1="50" x2="98" y2="50" stroke-width="1.4"/><line x1="92.84" y1="57.55" x2="97.27" y2="58.34" stroke-width="1.4"/><line x1="90.88" y1="64.88" x2="95.11" y2="66.42" stroke-width="1.4"/><line x1="87.67" y1="71.75" x2="91.57" y2="74" stroke-width="1.4"/><line x1="83.32" y1="77.96" x2="86.77" y2="80.85" stroke-width="1.4"/><line x1="77.96" y1="83.32" x2="80.85" y2="86.77" stroke-width="1.4"/><line x1="71.75" y1="87.67" x2="74" y2="91.57" stroke-width="1.4"/><line x1="64.88" y1="90.88" x2="66.42" y2="95.11" stroke-width="1.4"/><line x1="57.55" y1="92.84" x2="58.34" y2="97.27" stroke-width="1.4"/><line x1="50" y1="93.5" x2="50" y2="98" stroke-width="1.4"/><line x1="42.45" y1="92.84" x2="41.66" y2="97.27" stroke-width="1.4"/><line x1="35.12" y1="90.88" x2="33.58" y2="95.11" stroke-width="1.4"/><line x1="28.25" y1="87.67" x2="26" y2="91.57" stroke-width="1.4"/><line x1="22.04" y1="83.32" x2="19.15" y2="86.77" stroke-width="1.4"/><line x1="16.68" y1="77.96" x2="13.23" y2="80.85" stroke-width="1.4"/><line x1="12.33" y1="71.75" x2="8.43" y2="74" stroke-width="1.4"/><line x1="9.12" y1="64.88" x2="4.89" y2="66.42" stroke-width="1.4"/><line x1="7.16" y1="57.55" x2="2.73" y2="58.34" stroke-width="1.4"/><line x1="6.5" y1="50" x2="2" y2="50" stroke-width="1.4"/><line x1="7.16" y1="42.45" x2="2.73" y2="41.66" stroke-width="1.4"/><line x1="9.12" y1="35.12" x2="4.89" y2="33.58" stroke-width="1.4"/><line x1="12.33" y1="28.25" x2="8.43" y2="26" stroke-width="1.4"/><line x1="16.68" y1="22.04" x2="13.23" y2="19.15" stroke-width="1.4"/><line x1="22.04" y1="16.68" x2="19.15" y2="13.23" stroke-width="1.4"/><line x1="28.25" y1="12.33" x2="26" y2="8.43" stroke-width="1.4"/><line x1="35.12" y1="9.12" x2="33.58" y2="4.89" stroke-width="1.4"/><line x1="42.45" y1="7.16" x2="41.66" y2="2.73" stroke-width="1.4"/></g><g fill="#1f2a33" stroke="#1f2a33" stroke-width="0.6"><path transform="translate(50 34.52) rotate(0) scale(0.99)" d="M0 -10 C5 -10 7 -5 7 2 L9 6 H-9 L-7 2 C-7 -5 -5 -10 0 -10 Z M-2 7 H2 V10 H-2 Z" fill-rule="evenodd"/><path transform="translate(65.48 50) rotate(90) scale(0.99)" d="M0 -10 C5 -10 7 -5 7 2 L9 6 H-9 L-7 2 C-7 -5 -5 -10 0 -10 Z M-2 7 H2 V10 H-2 Z" fill-rule="evenodd"/><path transform="translate(50 65.48) rotate(180) scale(0.99)" d="M0 -10 C5 -10 7 -5 7 2 L9 6 H-9 L-7 2 C-7 -5 -5 -10 0 -10 Z M-2 7 H2 V10 H-2 Z" fill-rule="evenodd"/><path transform="translate(34.52 50) rotate(270) scale(0.99)" d="M0 -10 C5 -10 7 -5 7 2 L9 6 H-9 L-7 2 C-7 -5 -5 -10 0 -10 Z M-2 7 H2 V10 H-2 Z" fill-rule="evenodd"/><circle cx="50" cy="50" r="7" fill="none" stroke="#1f2a33" stroke-width="3"/></g></svg>
