<svg xmlns="http://www.w3.org/2000/svg" viewBox="0 0 100 100" width="100" height="100"><g fill="#9b2226" stroke="#9b2226"><circle cx="50" cy="50" r="43.5" fill="none" stroke-width="1.4"/><circle cx="50" cy="3" r="1.5" stroke="none"/><circle cx="60.46" cy="4.18" r="1.5" stroke="none"/><circle cx="70.39" cy="7.65" r="1.5" stroke="none"/><circle cx="79.3" cy="13.25" r="1.5" stroke="none"/><circle cx="86.75" cy="20.7" r="1.5" stroke="none"/><circle cx="92.35" cy="29.61" r="1.5" stroke="none"/><circle cx="95.82" cy="39.54" r="1.5" stroke="none"/><circle cx="97" cy="50" r="1.5" stroke="none"/><circle cx="95.82" cy="60.46" r="1.5" stroke="none"/><circle cx="92.35" cy="70.39" r="1.5" stroke="none"/><circle cx="86.75" cy="79.3" r="1.5" stroke="none"/><circle cx="79.3" cy="86.75" r="1.5" stroke="none"/><circle cx="70.39" cy="92.35" r="1.5" stroke="none"/><circle cx="60.46" cy="95.82" r="1.5" stroke="none"/><circle cx="50" cy="97" r="1.5" stroke="none"/><circle cx="39.54" cy="95.82" r="1.5" stroke="none"/><circle cx="29.61" cy="92.35" r="1.5" stroke="none"/><circle cx="20.7" cy="86.75" r="1.5" stroke="none"/><circle cx="13.25" cy="79.3" r="1.5" stroke="none"/><circle cx="7.65" cy="70.39" r="1.5" stroke="none"/><circle cx="4.18" cy="60.46" r="1.5" stroke="none"/><circle cx="3" cy="50" r="1.5" stroke="none"/><circle cx="4.18" cy="39.54" r="1.5" stroke="none"/><circle cx="7.65" cy="29.61" r="1.5" stroke="none"/><circle cx="13.25" cy="20.7" r="1.5" stroke="none"/><circle cx="20.7" cy="13.25" r="1.5" stroke="none"/><circle cx="29.61" cy="7.65" r="1.5" stroke="none"/><circle cx="39.54" cy="4.18" r="1.5" stroke="none"/></g><g fill="#9b2226" stroke="#9b2226" stroke-width="0.6"><path transform="translate(50 34.52) rotate(0) scale(0.99)" d="M0 -10 C5 -10 7 -5 7 2 L9 6 H-9 L-7 2 C-7 -5 -5 -10 0 -10 Z M-2 7 H2 V10 H-2 Z" fill-rule="evenodd"/><path transform="translate(65.48 50) rotate(90) scale(0.99)" d="M0 -10 C5 -10 7 -5 7 2 L9 6 H-9 L-7 2 C-7 -5 -5 -10 0 -10 Z M-2 7 H2 V10 H-2 Z" fill-rule="evenodd"/><path transform="translate(50 65.48) rotate(180) scale(0.99)" d="M0 -10 C5 -10 7 -5 7 2 L9 6 H-9 L-7 2 C-7 -5 -5 -10 0 -10 Z M-2 7 H2 V10 H-2 Z" fill-rule="evenodd"/><path transform="translate(34.52 50) rotate(270) scale(0.99)" d="M0 -10 C5 -10 7 -5 7 2 L9 6 H-9 L-7 2 C-7 -5 -5 -10 0 -10 Z M-2 7 H2 V10 H-2 Z" fill-rule="evenodd"/></g></svg>
