<svg xmlns="http://www.w3.org/2000/svg" viewBox="0 0 100 100" width="100" height="100"><g fill="#1f2a33" stroke="#1f2a33"></g><g fill="#1f2a33" stroke="#1f2a33" stroke-width="0.6"><path transform="translate(50 33) rotate(0) scale(0.95)" d="M0 -10 C3 -5 3 5 0 10 C-1 5 -1 -5 0 -10 Z M-6 -6 C-2 -4 -1 0 -1 2 C-4 0 -6 -3 -6 -6 Z" fill-rule="evenodd"/><path transform="translate(50 50) rotate(0) scale(0.95)" d="M0 -10 C5 -10 5 -4 0 0 C-5 -4 -5 -10 0 -10 Z M10 0 C10 5 4 5 0 0 C4 -5 10 -5 10 0 Z M0 10 C-5 10 -5 4 0 0 C5 4 5 10 0 10 Z M-10 0 C-10 -5 -4 -5 0 0 C-4 5 -10 5 -10 0 Z" fill-rule="evenodd"/><path transform="translate(50 67) rotate(0) scale(0.95)" d="M0 -10 C3 -5 3 5 0 10 C-1 5 -1 -5 0 -10 Z M-6 -6 C-2 -4 -1 0 -1 2 C-4 0 -6 -3 -6 -6 Z" fill-rule="evenodd"/></g></svg>
