<?xml version="1.0" encoding="utf-8"?>
<!DOCTYPE svg
  PUBLIC '-//W3C//DTD SVG 1.0//EN'
  'http://www.w3.org/TR/2001/REC-SVG-20010904/DTD/svg10.dtd'>
<svg width="509.27559055118115" height="94" preserveAspectRatio="xMinYMin meet" viewBox="0 0 509 94" xmlns="http://www.w3.org/2000/svg" version="1.0" fill-rule="evenodd" xmlns:xlink="http://www.w3.org/1999/xlink">
	<title>...</title>
	<desc>...</desc>
	<clipPath id="clip">
		<rect x="0" y="0" width="509.27559055118115" height="94"/>
	</clipPath>
	<g id="group" transform="scale(1,-1) translate(0,-94)" style="clip-path: url(#clip)">
		<g transform="">
			<rect x="0.0" y="26" width="116.06889763779529" height="48" rx="4" ry="4" style="stroke: rgb(83%,87%,89%); stroke-linecap: butt; stroke-width: 0.6; fill: rgb(94%,96%,96%); fill-rule: evenodd;"/>
			<text x="31.644448818897644" y="56" style="font-family: NBG-Bold; font-size: 9.1px;fill: rgb(9%,16%,21%); stroke:none;" transform="translate(0,112) scale(1,-1)">원본 모델 점검</text>
			<text x="31.80964881889764" y="42" style="font-family: NBG; font-size: 8.4px;fill: rgb(9%,16%,21%); stroke:none;" transform="translate(0,84) scale(1,-1)">형태·부품·표면</text>
			<path d="M 119.068898,50 L 127.068898,50 Z" style="stroke: rgb(13%,40%,47%); stroke-linecap: butt; stroke-width: 1;"/>
			<polygon points="127.0689 50, 123.0689 53, 123.0689 47" style="stroke: rgb(13%,40%,47%); stroke-linecap: butt; stroke-width: 1; fill: rgb(13%,40%,47%); fill-rule: evenodd;"/>
			<rect x="131.0688976377953" y="26" width="116.06889763779529" height="48" rx="4" ry="4" style="stroke: rgb(83%,87%,89%); stroke-linecap: butt; stroke-width: 0.6; fill: rgb(94%,96%,96%); fill-rule: evenodd;"/>
			<text x="171.8497464566929" y="56" style="font-family: NBG-Bold; font-size: 9.1px;fill: rgb(9%,16%,21%); stroke:none;" transform="translate(0,112) scale(1,-1)">표현 조정</text>
			<text x="162.8785464566929" y="42" style="font-family: NBG; font-size: 8.4px;fill: rgb(9%,16%,21%); stroke:none;" transform="translate(0,84) scale(1,-1)">비율·재질·조명</text>
			<path d="M 250.137795,50 L 258.137795,50 Z" style="stroke: rgb(13%,40%,47%); stroke-linecap: butt; stroke-width: 1;"/>
			<polygon points="258.1378 50, 254.1378 53, 254.1378 47" style="stroke: rgb(13%,40%,47%); stroke-linecap: butt; stroke-width: 1; fill: rgb(13%,40%,47%); fill-rule: evenodd;"/>
			<rect x="262.1377952755906" y="26" width="116.06889763779526" height="48" rx="4" ry="4" style="stroke: rgb(83%,87%,89%); stroke-linecap: butt; stroke-width: 0.6; fill: rgb(87%,92%,94%); fill-rule: evenodd;"/>
			<text x="298.8600440944882" y="56" style="font-family: NBG-Bold; font-size: 9.1px;fill: rgb(9%,16%,21%); stroke:none;" transform="translate(0,112) scale(1,-1)">이미지 제작</text>
			<text x="292.0658440944882" y="42" style="font-family: NBG; font-size: 8.4px;fill: rgb(9%,16%,21%); stroke:none;" transform="translate(0,84) scale(1,-1)">고성능 서버 렌더</text>
			<path d="M 381.206693,50 L 389.206693,50 Z" style="stroke: rgb(13%,40%,47%); stroke-linecap: butt; stroke-width: 1;"/>
			<polygon points="389.2067 50, 385.2067 53, 385.2067 47" style="stroke: rgb(13%,40%,47%); stroke-linecap: butt; stroke-width: 1; fill: rgb(13%,40%,47%); fill-rule: evenodd;"/>
			<rect x="393.20669291338584" y="26" width="116.06889763779532" height="48" rx="4" ry="4" style="stroke: rgb(83%,87%,89%); stroke-linecap: butt; stroke-width: 0.6; fill: rgb(94%,96%,96%); fill-rule: evenodd;"/>
			<text x="433.9875417322835" y="56" style="font-family: NBG-Bold; font-size: 9.1px;fill: rgb(9%,16%,21%); stroke:none;" transform="translate(0,112) scale(1,-1)">게임 적용</text>
			<text x="426.8811417322835" y="42" style="font-family: NBG; font-size: 8.4px;fill: rgb(9%,16%,21%); stroke:none;" transform="translate(0,84) scale(1,-1)">화면 품질 확인</text>
			<text x="144.9748952755906" y="9" style="font-family: NBG; font-size: 8.6px;fill: rgb(36%,41%,43%); stroke:none;" transform="translate(0,18) scale(1,-1)">렌더 결과에 수정이 필요하면 모델·표현 조정 단계로 돌아갑니다.</text>
		</g>
	</g>
</svg>
